<svg viewBox="0 0 779.54 795.85" xmlns="http://www.w3.org/2000/svg"><g fill="#262626"><path d="m215.53 553.47h32.04l51.83 142.85h-29.9l-8.57-23.67h-58.77l-8.58 23.67h-29.89l51.83-142.85zm-3.06 91.01h38.16l-19.18-52.34z"/><path d="m316.95 696.31v-142.85h28.16v142.85z"/><path d="m409.39 696.31v-142.85h28.17v114.68h57.55v28.16h-85.71z"/><path d="m559.38 553.47h32.04l51.83 142.85h-29.9l-8.57-23.67h-58.77l-8.58 23.67h-29.89l51.83-142.85zm-3.06 91.01h38.16l-19.18-52.34z"/><path d="m657.53 696.31v-142.85h53.16c7.69 0 14.65 1.58 20.92 4.74 6.26 3.17 11.21 7.67 14.84 13.52 3.64 5.85 5.46 12.72 5.46 20.61 0 3.2-.43 6.5-1.28 9.9s-2.28 6.53-4.28 9.39c-2.01 2.86-4.74 5.04-8.21 6.53 4.48 1.09 8.09 3.11 10.81 6.07s4.8 6.36 6.22 10.2c1.43 3.85 2.38 7.77 2.86 11.78.47 4.02.71 7.65.71 10.92 0 7.34-1.9 13.98-5.71 19.89-3.81 5.92-8.93 10.61-15.36 14.08-6.42 3.47-13.52 5.2-21.27 5.2h-58.87zm28.17-88.46h21.73c4.49 0 8.33-1.46 11.53-4.39s4.8-6.7 4.8-11.33-1.6-8.38-4.8-10.87c-3.2-2.48-7.04-3.72-11.53-3.72h-21.73v30.3zm0 64.48h27.75c3.75 0 7.15-.9 10.2-2.7 3.06-1.8 5.51-4.29 7.35-7.45s2.76-6.75 2.76-10.76c0-3.4-.92-6.63-2.76-9.69-1.83-3.06-4.28-5.56-7.35-7.5-3.06-1.94-6.46-2.91-10.2-2.91h-27.75v41.02z"/><path d="m215.53 553.47h32.04l51.83 142.85h-29.9l-8.57-23.67h-58.77l-8.58 23.67h-29.89l51.83-142.85zm-3.06 91.01h38.16l-19.18-52.34z"/><path d="m316.95 696.31v-142.85h28.16v142.85z"/><path d="m409.39 696.31v-142.85h28.17v114.68h57.55v28.16h-85.71z"/><path d="m559.38 553.47h32.04l51.83 142.85h-29.9l-8.57-23.67h-58.77l-8.58 23.67h-29.89l51.83-142.85zm-3.06 91.01h38.16l-19.18-52.34z"/><path d="m657.53 696.31v-142.85h53.16c7.69 0 14.65 1.58 20.92 4.74 6.26 3.17 11.21 7.67 14.84 13.52 3.64 5.85 5.46 12.72 5.46 20.61 0 3.2-.43 6.5-1.28 9.9s-2.28 6.53-4.28 9.39c-2.01 2.86-4.74 5.04-8.21 6.53 4.48 1.09 8.09 3.11 10.81 6.07s4.8 6.36 6.22 10.2c1.43 3.85 2.38 7.77 2.86 11.78.47 4.02.71 7.65.71 10.92 0 7.34-1.9 13.98-5.71 19.89-3.81 5.92-8.93 10.61-15.36 14.08-6.42 3.47-13.52 5.2-21.27 5.2h-58.87zm28.17-88.46h21.73c4.49 0 8.33-1.46 11.53-4.39s4.8-6.7 4.8-11.33-1.6-8.38-4.8-10.87c-3.2-2.48-7.04-3.72-11.53-3.72h-21.73v30.3zm0 64.48h27.75c3.75 0 7.15-.9 10.2-2.7 3.06-1.8 5.51-4.29 7.35-7.45s2.76-6.75 2.76-10.76c0-3.4-.92-6.63-2.76-9.69-1.83-3.06-4.28-5.56-7.35-7.5-3.06-1.94-6.46-2.91-10.2-2.91h-27.75v41.02z"/><path d="m275.94 206.49v28.16h-42.04v114.68h-28.15v-114.68h-42.05v-28.16z"/><path d="m372.87 206.49h28.17v142.85h-28.17v-62.44h-54.28v62.44h-28.15v-142.85h28.15v52.24h54.28z"/><path d="m419.4 349.34v-142.85h90.39v28.16h-62.24v24.08h48.57v28.16h-48.57v34.28h62.24v28.16h-90.39z"/><path d="m233.9 525.79c-9.92 0-19.16-1.94-27.7-5.82-8.53-3.88-15.98-9.23-22.35-16.07-6.36-6.84-11.31-14.74-14.84-23.72-3.55-8.98-5.31-18.54-5.31-28.67 0-10.88 1.94-20.81 5.82-29.79s9.15-16.75 15.82-23.31c6.66-6.56 14.23-11.63 22.69-15.2 8.48-3.57 17.3-5.36 26.48-5.36 10.07 0 19.93 2.34 29.6 7.04 9.65 4.7 18.29 12.14 25.91 22.35l-25.1 13.47c-4.36-5.03-9.21-8.78-14.53-11.22-5.34-2.45-10.77-3.67-16.27-3.67s-10.8 1.12-15.88 3.37c-5.06 2.25-9.57 5.44-13.51 9.59-3.95 4.15-7.08 9.05-9.39 14.69-2.31 5.65-3.47 11.87-3.47 18.67 0 6.33 1.1 12.24 3.32 17.75 2.21 5.51 5.25 10.34 9.13 14.49s8.38 7.4 13.52 9.74c5.13 2.35 10.63 3.52 16.47 3.52 3.6 0 7.16-.52 10.67-1.58 3.49-1.06 6.84-2.6 10.04-4.64s6.14-4.59 8.82-7.65c2.7-3.06 5.05-6.6 7.09-10.61h-22.13v-24.49h55.29c.41 10.55-1.12 20.48-4.6 29.8-3.47 9.32-8.42 17.53-14.89 24.64-6.46 7.11-14.02 12.67-22.65 16.68-8.64 4.01-17.99 6.02-28.06 6.02z"/><path d="m385.02 525.79c-9.66 0-18.75-1.92-27.25-5.77-8.5-3.84-15.98-9.16-22.45-15.97-6.46-6.8-11.52-14.67-15.2-23.62-3.67-8.94-5.51-18.52-5.51-28.72s1.85-19.78 5.51-28.72c3.68-8.94 8.74-16.82 15.2-23.62 6.47-6.8 13.95-12.13 22.45-15.97s17.59-5.77 27.25-5.77 18.84 1.92 27.34 5.77c8.5 3.84 15.98 9.17 22.44 15.97 6.47 6.8 11.52 14.68 15.16 23.62 3.64 8.95 5.46 18.52 5.46 28.72s-1.82 19.78-5.46 28.72-8.69 16.82-15.16 23.62c-6.46 6.81-13.94 12.13-22.44 15.97s-17.62 5.77-27.34 5.77zm0-28.16c5.78 0 11.21-1.21 16.31-3.62s9.59-5.73 13.47-9.95c3.88-4.21 6.92-9.08 9.14-14.59 2.21-5.51 3.31-11.43 3.31-17.75s-1.1-12.26-3.31-17.81c-2.22-5.54-5.26-10.41-9.14-14.59s-8.37-7.48-13.47-9.9c-5.1-2.41-10.54-3.62-16.31-3.62s-11.23 1.21-16.33 3.62c-5.1 2.42-9.59 5.73-13.47 9.95s-6.92 9.08-9.13 14.59c-2.22 5.51-3.32 11.43-3.32 17.75s1.1 12.26 3.32 17.81c2.21 5.54 5.25 10.41 9.13 14.59s8.37 7.48 13.47 9.9 10.54 3.62 16.33 3.62z"/><path d="m536.02 525.79c-9.66 0-18.75-1.92-27.25-5.77-8.5-3.84-15.98-9.16-22.45-15.97-6.46-6.8-11.52-14.67-15.2-23.62-3.67-8.94-5.51-18.52-5.51-28.72s1.85-19.78 5.51-28.72c3.68-8.94 8.74-16.82 15.2-23.62 6.47-6.8 13.95-12.13 22.45-15.97s17.59-5.77 27.25-5.77 18.84 1.92 27.34 5.77c8.5 3.84 15.98 9.17 22.44 15.97 6.47 6.8 11.52 14.68 15.16 23.62 3.64 8.95 5.46 18.52 5.46 28.72s-1.82 19.78-5.46 28.72-8.69 16.82-15.16 23.62c-6.46 6.81-13.94 12.13-22.44 15.97s-17.62 5.77-27.34 5.77zm0-28.16c5.78 0 11.21-1.21 16.31-3.62s9.59-5.73 13.47-9.95c3.88-4.21 6.92-9.08 9.14-14.59 2.21-5.51 3.31-11.43 3.31-17.75s-1.1-12.26-3.31-17.81c-2.22-5.54-5.26-10.41-9.14-14.59s-8.37-7.48-13.47-9.9c-5.1-2.41-10.54-3.62-16.31-3.62s-11.23 1.21-16.33 3.62c-5.1 2.42-9.59 5.73-13.47 9.95s-6.92 9.08-9.13 14.59c-2.22 5.51-3.32 11.43-3.32 17.75s1.1 12.26 3.32 17.81c2.21 5.54 5.25 10.41 9.13 14.59s8.37 7.48 13.47 9.9 10.54 3.62 16.33 3.62z"/><path d="m620.71 523.14v-142.85h47.34c9.86 0 19.09 1.85 27.7 5.56s16.19 8.84 22.76 15.41c6.56 6.57 11.69 14.15 15.41 22.75 3.71 8.6 5.55 17.84 5.55 27.7s-1.85 19.1-5.55 27.7c-3.72 8.61-8.85 16.19-15.41 22.75-6.56 6.57-14.15 11.7-22.76 15.41s-17.84 5.56-27.7 5.56h-47.34zm28.15-28.16h19.18c5.85 0 11.37-1.12 16.58-3.36 5.21-2.25 9.82-5.34 13.83-9.29s7.16-8.54 9.43-13.77c2.29-5.24 3.41-10.85 3.41-16.84s-1.13-11.58-3.41-16.79c-2.27-5.2-5.41-9.79-9.38-13.77-3.99-3.98-8.58-7.09-13.78-9.34-5.21-2.24-10.76-3.36-16.69-3.36h-19.18v86.52z"/></g><path d="m748.17 101.95c13.12-15.54 20.8-33.82 25.36-48.24 4.54-14.43 5.91-25.05 5.95-25.36.26-2.04-.34-4.1-1.66-5.68s-3.24-2.53-5.3-2.64c-.11 0-1.54-.07-4-.07-5.86 0-17.5.38-30.81 3.03-13.3 2.67-28.35 7.55-40.9 17.15l-.14.11c-15.26 12.3-24.63 27.86-30.06 43.58-3.58 10.36-5.44 20.77-6.34 30.62-10.12-17.07-23.59-34.34-40.93-50.12-30.99-28.18-74.04-51.44-130.2-59.48-22.56-3.24-46.17-4.85-70.12-4.85-47.16 0-95.61 6.25-139.71 18.82-43.99 12.56-83.67 31.4-113.36 57-35.92 24.57-59.86 60.33-74.84 96.85-15.04 36.71-21.16 74.23-21.17 102.97 0 6.12.28 11.86.82 17.12 1.47 14.05 5.56 30.14 9.21 45.98 3.67 15.8 6.87 31.36 6.84 43.31 0 4.55-.45 8.54-1.37 11.75-1.66 6.06-6.52 13.64-13.4 21.57-10.28 11.96-24.75 24.79-38 37.43-6.63 6.33-12.96 12.62-18.37 18.88-5.4 6.27-9.92 12.47-12.81 18.93-1.1 2.51-1.73 5.19-2.19 8.1-.45 2.91-.67 6.01-.68 9.12 0 2.87.19 5.72.64 8.44.47 2.72 1.12 5.29 2.47 7.8 2.81 5.04 7.13 8.7 11.92 12.27 7.2 5.27 15.81 10.1 22.81 14.89 3.49 2.37 6.55 4.73 8.73 6.89 2.2 2.15 3.4 4.07 3.74 5.28v.19c.05.56-.33 2.31-1.32 4.46-1.43 3.26-3.95 7.37-6.34 11.46-1.2 2.06-2.36 4.13-3.37 6.24-.99 2.12-1.86 4.24-2.3 6.72-.21 1.21-.28 2.37-.28 3.55.01 3.61.65 7.49 1.68 11.26.52 1.88 1.14 3.7 1.9 5.43.77 1.73 1.63 3.36 2.93 4.95 2.16 2.55 4.76 4.43 7.77 6.5 3.31 2.22 7.1 4.44 10.55 6.35-1.53 1.07-3.09 2.1-4.5 3.39-1.04.95-2.02 1.97-2.92 3.2-.88 1.24-1.77 2.71-2.19 4.84-.17.9-.24 1.78-.24 2.65.06 4.63 1.84 8.36 3.89 11.86 3.14 5.21 7.37 10.07 11.02 14.52 1.82 2.21 3.48 4.3 4.74 6.1 1.27 1.79 2.09 3.34 2.33 4.1.53 1.44.98 4.97.95 9.37 0 6.85-.83 15.92-1.69 25.23-.86 9.33-1.75 18.92-1.75 27.32 0 3.62.16 7.03.62 10.21.47 3.18 1.17 6.13 2.63 8.94 4.19 8.06 10.98 14.24 19.42 18.11 8.45 3.89 18.49 5.66 29.92 5.67 9.59 0 20.18-1.25 31.75-3.7 21.87-4.63 47.12-9.83 71.81-9.82 22.88 0 45.03 4.39 64.14 17.31.9.61 2.53 1.81 3.86 2.8 1.33 1 2.39 1.82 2.39 1.82 2.97 2.29 7.25 1.74 9.54-1.23s1.74-7.25-1.23-9.54c-.06-.05-4.34-3.36-6.94-5.12-22.05-14.91-47.21-19.66-71.76-19.65-26.57.01-52.69 5.49-74.63 10.11-10.85 2.29-20.55 3.41-28.94 3.41-10.02 0-18.13-1.59-24.21-4.41-6.1-2.85-10.25-6.73-13.08-12.07-.37-.68-.9-2.31-1.21-4.55-.32-2.24-.48-5.09-.48-8.28 0-7.44.83-16.77 1.69-26.06.86-9.32 1.75-18.61 1.75-26.48-.03-5.13-.3-9.61-1.68-13.76-1.3-3.69-3.41-6.71-5.75-9.83-3.52-4.62-7.71-9.29-10.84-13.52-1.56-2.1-2.84-4.08-3.63-5.68-.71-1.41-.93-2.39-.97-2.89.31-.38.95-1.06 1.98-1.86 2.01-1.63 4.87-3.43 7.14-4.74 1.14-.66 2.14-1.21 2.84-1.58l.82-.43.26-.13c2.31-1.16 3.77-3.54 3.75-6.12s-1.51-4.95-3.83-6.07l-.89-.44c-2.04-1.02-7.33-3.7-12.51-6.71-2.59-1.5-5.16-3.09-7.22-4.53-2.05-1.4-3.65-2.82-3.96-3.24-.1-.1-.55-.79-.96-1.76-1.35-2.93-2.49-8.4-2.43-11.22l.08-1.22c.08-.65.79-2.57 1.99-4.79 1.78-3.39 4.47-7.6 6.84-11.96 1.18-2.19 2.29-4.44 3.17-6.8.86-2.36 1.53-4.84 1.54-7.65 0-1.33-.17-2.75-.61-4.18-1.88-5.88-5.95-10.1-10.49-13.94-6.87-5.71-15.46-10.63-22.89-15.42-3.71-2.38-7.1-4.7-9.73-6.88-2.64-2.16-4.44-4.22-5.16-5.58-.23-.38-.72-1.75-.99-3.53-.3-1.78-.46-3.97-.46-6.21 0-2.43.19-4.92.52-7.04.31-2.11.83-3.9 1.18-4.65 2.65-6.03 8.47-13.52 15.95-21.37 11.21-11.84 25.99-24.66 38.94-37.55 6.48-6.46 12.52-12.95 17.48-19.51 4.95-6.57 8.89-13.19 10.88-20.22 1.36-4.84 1.87-10.02 1.87-15.44-.02-14.21-3.5-30.36-7.19-46.38-3.7-15.97-7.66-31.8-8.93-44.32-.49-4.74-.75-10.02-.75-15.72-.01-26.84 5.84-62.96 20.15-97.81 14.31-34.89 36.98-68.44 70.3-91.07l.63-.48c27.61-23.93 65.69-42.21 108.41-54.39 42.71-12.19 90.02-18.3 135.97-18.3 23.34 0 46.32 1.57 68.18 4.71 53.47 7.68 93.84 29.61 122.98 56.08 6.16 5.59 11.7 11.42 16.86 17.33-6.13-3.31-11.48-5.65-15.13-7.23-32.28-14.02-75.93-6.31-77.77-5.97-2.92.53-5.25 2.77-5.89 5.67-.17.78-4.09 19.43 8.88 44.28 11.23 21.51 33 37.18 64.72 46.58 10.42 3.09 24.01 4.03 36.68 4.03 12.01 0 23.17-.84 30.05-1.5 3.89 22.96 2.74 45.6-3.3 59.05-6 13.36-17.65 23.62-24.07 28.55-.29.22-.45.54-.69.8h-64.59c-3.76 0-6.8 3.05-6.8 6.8s3.05 6.8 6.8 6.8h176.83c3.76 0 6.8-3.05 6.8-6.8s-3.05-6.8-6.8-6.8h-90.29c6.14-6.33 12.17-14.12 16.29-23.3 7.93-17.66 9.12-46.28 3.1-74.68s0-.02 0-.03c-1.7-8.03-3.93-15.73-6.59-23 5.39-1.73 13.86-4.7 23.5-8.99 16.3-7.3 35.93-18.18 49.43-34.03zm-142.13 58.94c-27.73-8.22-46.51-21.43-55.81-39.25-6.81-13.05-7.97-23.58-7.94-29.37 12.13-1.49 41.77-3.77 63.73 5.78 11.37 4.94 41.56 18.05 53.52 47.18 2.3 5.6 4.29 11.57 5.94 17.8-16.01 1.41-43.62 2.54-59.44-2.14zm68.27-31.18c0-.15 0-.3 0-.45 0-12.58 1.53-26.95 6.26-40.6 4.74-13.65 12.55-26.53 25.31-36.86 9.8-7.53 22.79-11.97 34.72-14.32 8.78-1.75 16.91-2.41 22.68-2.64-.91 4.16-2.25 9.57-4.23 15.68-4.21 13.04-11.24 29.03-22.15 41.88-10.89 12.96-28.9 23.33-44.16 30.08-7.11 3.17-13.55 5.55-18.43 7.22z" fill="#8dc85c"/></svg>
